<svg id="Layer_1" data-name="Layer 1" xmlns="http://www.w3.org/2000/svg" viewBox="0 0 20 20"><defs><style>.cls-1{font-size:5.16px;fill:#c132c9;}.cls-1,.cls-2,.cls-3,.cls-4{stroke:#fff;stroke-miterlimit:10;}.cls-1,.cls-3{stroke-width:0.25px;}.cls-1,.cls-2{font-family:Alegreya Sans SC;}.cls-2{font-size:6.53px;fill:#fff;stroke-width:0.08px;}.cls-3,.cls-4{fill:none;}.cls-3{opacity:0.8;}.cls-4{stroke-width:0.5px;}</style></defs><title>logosmallfinal</title><text class="cls-1" transform="translate(2.94 9.09) scale(1.09)">H<tspan x="3.43" y="0">AND</tspan></text><text class="cls-2" transform="translate(3.52 13.36) scale(1.09)">m</text><text class="cls-2" transform="translate(8.36 13.36)">ade</text><polyline class="cls-3" points="18.58 8.14 18.58 1.8 2.94 1.8 2.94 4.29 2.94 7.46 2.94 17.14 18.58 17.14 18.58 13.88"/><polyline class="cls-4" points="17.77 13.96 17.77 17.94 2.26 17.94 2.26 10.72 2.26 7.46"/><polyline class="cls-4" points="17.77 7.8 17.77 2.43 2.26 2.43 2.26 4.3 2.26 7.8"/><polyline class="cls-4" points="2.26 2.37 1.01 2.37 1.01 1.03 2.26 1.03 2.26 2.57"/><polyline class="cls-4" points="17.79 17.84 17.79 19.09 19.13 19.09 19.13 17.84 17.59 17.84"/></svg>